<svg xmlns="http://www.w3.org/2000/svg" viewBox="0 0 1920 1080"><defs><style>.cls-1{fill:#3fa9f5;}.cls-2{fill:#29abe2;}.cls-14,.cls-2,.cls-3,.cls-4{stroke:#000;stroke-miterlimit:10;}.cls-3,.cls-8{fill:#4cb4d8;}.cls-20,.cls-35,.cls-37,.cls-4{fill:#fff;}.cls-5,.cls-6,.cls-7{isolation:isolate;font-family:Verdana-Italic, Verdana;font-style:italic;}.cls-5{font-size:46.99px;}.cls-6{font-size:35.24px;}.cls-7{font-size:32.3px;}.cls-9{fill:#333;}.cls-10,.cls-37{font-size:42px;}.cls-10,.cls-20,.cls-30,.cls-35,.cls-37{font-family:MyriadPro-Regular, Myriad Pro;}.cls-11{letter-spacing:-0.03em;}.cls-12{letter-spacing:-0.01em;}.cls-13{letter-spacing:-0.01em;}.cls-14{fill:none;}.cls-15{letter-spacing:-0.01em;}.cls-16{letter-spacing:-0.01em;}.cls-17{letter-spacing:0em;}.cls-18{letter-spacing:0.02em;}.cls-19{letter-spacing:-0.01em;}.cls-20{font-size:23px;}.cls-21{letter-spacing:0em;}.cls-22{letter-spacing:-0.01em;}.cls-23{letter-spacing:-0.08em;}.cls-24{letter-spacing:-0.08em;}.cls-25{letter-spacing:-0.08em;}.cls-26{letter-spacing:0.01em;}.cls-27{letter-spacing:-0.01em;}.cls-28{letter-spacing:-0.01em;}.cls-29{letter-spacing:0em;}.cls-30{font-size:40px;}.cls-31{letter-spacing:0em;}.cls-32{letter-spacing:0em;}.cls-33{letter-spacing:0.02em;}.cls-34{letter-spacing:-0.01em;}.cls-35{font-size:110px;}.cls-36{letter-spacing:0.01em;}.cls-38{letter-spacing:-0.02em;}</style></defs><title>maquettelayout</title><g id="Calque_1" data-name="Calque 1"><rect class="cls-1" x="0.5" y="0.5" width="1919" height="414"/><path d="M1919,1V414H1V1H1919m1-1H0V415H1920V0Z" transform="translate(0)"/><path class="cls-2" d="M989.3,25.3a100.8,100.8,0,0,0-32.16,5.26c-61.57,20.68-87,94-52.7,149.16l78,125.26c1.62,2.59,7,4,7,4a21.28,21.28,0,0,0,2.06-.59V25.32Z" transform="translate(0)"/><path class="cls-3" d="M993.7,25.3a100.8,100.8,0,0,1,32.16,5.26c61.57,20.68,87,94,52.7,149.16l-78,125.26c-1.62,2.59-7,4-7,4a21.28,21.28,0,0,1-2.06-.59V25.32Z" transform="translate(0)"/><ellipse class="cls-4" cx="991.54" cy="115.75" rx="70.78" ry="71.07"/><text class="cls-5" transform="translate(1009.16 104.18)">Z</text><text class="cls-6" transform="translate(973.92 128.73)">Z</text><text class="cls-7" transform="translate(946.91 159.39)">Z</text><rect class="cls-8" x="991" y="25.83" width="1.22" height="18.33"/><rect class="cls-8" x="991" y="187.35" width="1.56" height="120.66"/><rect class="cls-4" x="77.39" y="342.1" width="196.49" height="58.5" rx="12" ry="12"/><rect class="cls-4" x="413.9" y="342.1" width="196.49" height="58.5" rx="12" ry="12"/><rect class="cls-4" x="737.88" y="342.1" width="196.49" height="58.5" rx="12" ry="12"/><rect class="cls-4" x="1068.13" y="342.1" width="196.49" height="58.5" rx="12" ry="12"/><rect class="cls-4" x="1398.38" y="342.1" width="196.49" height="58.5" rx="12" ry="12"/><rect class="cls-4" x="1683.37" y="342.1" width="196.49" height="58.5" rx="12" ry="12"/><rect class="cls-9" x="0.5" y="1028.07" width="1919" height="51.43"/><path d="M1919,1028.57V1079H1v-50.43H1919m1-1H0V1080H1920v-52.43Z" transform="translate(0)"/><text class="cls-10" transform="translate(754.54 515.91)"><tspan class="cls-11">V</tspan><tspan x="22.05" y="0">enez donc fai</tspan><tspan class="cls-12" x="254.43" y="0">r</tspan><tspan x="267.75" y="0">e une sies</tspan><tspan class="cls-13" x="438.22" y="0">t</tspan><tspan x="451.87" y="0">e</tspan></text><rect class="cls-14" x="688.75" y="567.69" width="604.5" height="43.41"/><rect class="cls-14" x="688.75" y="633.18" width="604.5" height="43.41"/><rect class="cls-14" x="688.75" y="698.67" width="604.5" height="43.41"/><rect class="cls-14" x="688.75" y="762.08" width="604.5" height="43.41"/><text class="cls-10" transform="translate(110.25 384.67)"><tspan class="cls-15">A</tspan><tspan class="cls-16" x="25.2" y="0">c</tspan><tspan x="43.76" y="0">cueil</tspan></text><text class="cls-10" transform="translate(437.59 384.67)"><tspan class="cls-17">R</tspan><tspan x="22.76" y="0">ése</tspan><tspan class="cls-18" x="81.48" y="0">r</tspan><tspan class="cls-19" x="96.26" y="0">v</tspan><tspan x="116.04" y="0">er</tspan></text><text class="cls-10" transform="translate(774.66 384.67)">Option</text><text class="cls-10" transform="translate(1104.91 384.67)">Option</text><text class="cls-10" transform="translate(1435.16 384.67)">Option</text><text class="cls-10" transform="translate(1720.15 384.67)">Option</text><text class="cls-20" transform="translate(705.46 1057.4)"><tspan class="cls-21">C</tspan><tspan class="cls-22" x="13.27" y="0">r</tspan><tspan x="20.56" y="0">éé par M. KH</tspan><tspan class="cls-23" x="140.64" y="0">A</tspan><tspan class="cls-24" x="152.9" y="0">Y</tspan><tspan class="cls-25" x="163.48" y="0">A</tspan><tspan x="175.79" y="0">T </tspan><tspan class="cls-26" x="192.09" y="0">M</tspan><tspan x="210.72" y="0">ehdi dans le cad</tspan><tspan class="cls-27" x="365.23" y="0">r</tspan><tspan x="372.53" y="0">e du </tspan><tspan class="cls-28" x="419.44" y="0">c</tspan><tspan x="429.61" y="0">ours </tspan><tspan class="cls-29" x="476.41" y="0">A</tspan><tspan x="490.42" y="0">ngular</tspan></text><line class="cls-14" y1="321.1" x2="1920" y2="324.1"/><rect class="cls-14" x="821.17" y="900.74" width="342.78" height="78" rx="20.25" ry="20.25"/><text class="cls-30" transform="translate(918.72 950.31)"><tspan class="cls-31">R</tspan><tspan class="cls-32" x="21.68" y="0">ése</tspan><tspan class="cls-33" x="77.6" y="0">r</tspan><tspan class="cls-34" x="91.68" y="0">v</tspan><tspan x="110.52" y="0">ez</tspan></text></g><g id="Calque_2" data-name="Calque 2"><text class="cls-35" transform="translate(231.13 183.46)"><tspan class="cls-36">S</tspan><tspan x="54.89" y="0">ododo</tspan></text><text class="cls-37" transform="translate(1315.84 143.32)"><tspan class="cls-38">P</tspan><tspan class="cls-12" x="21.67" y="0">r</tspan><tspan x="34.99" y="0">enez le </tspan><tspan class="cls-13" x="167.12" y="0">t</tspan><tspan x="180.77" y="0">emps de </tspan><tspan x="53.11" y="50.4">bien do</tspan><tspan class="cls-17" x="186.83" y="50.4">r</tspan><tspan x="200.74" y="50.4">mir ! </tspan></text></g></svg>