<svg id="Calque_2" data-name="Calque 2" xmlns="http://www.w3.org/2000/svg" viewBox="0 0 349.88 484"><defs><style>.cls-1{fill:#29abe2;}.cls-1,.cls-2,.cls-3{stroke:#000;stroke-miterlimit:10;}.cls-2,.cls-7{fill:#4cb4d8;}.cls-3{fill:#fff;}.cls-4{font-size:80px;}.cls-4,.cls-5,.cls-6{font-family:Verdana-Italic, Verdana;font-style:italic;}.cls-5{font-size:60px;}.cls-6{font-size:55px;}</style></defs><title>LogoSododo</title><path class="cls-1" d="M170.75,10.5A171.62,171.62,0,0,0,116,19.45C11.18,54.66-32.17,179.57,26.28,273.4L159.14,486.66c2.75,4.41,11.86,6.83,11.86,6.83a36.22,36.22,0,0,0,3.5-1V10.54Q172.63,10.5,170.75,10.5Z" transform="translate(0.44 -10)"/><path class="cls-2" d="M178.25,10.5A171.62,171.62,0,0,1,233,19.45C337.82,54.66,381.17,179.57,322.72,273.4L189.86,486.66c-2.75,4.41-11.86,6.83-11.86,6.83a36.22,36.22,0,0,1-3.5-1V10.54Q176.37,10.5,178.25,10.5Z" transform="translate(0.44 -10)"/><ellipse class="cls-3" cx="175.44" cy="154.5" rx="120.5" ry="121"/><text class="cls-4" transform="translate(205.44 134.8)">Z</text><text class="cls-5" transform="translate(145.44 176.6)">Z</text><text class="cls-6" transform="translate(99.44 228.8)">Z</text><rect class="cls-7" x="174.44" y="1" width="9" height="32"/><rect class="cls-7" x="174.44" y="276" width="6" height="206"/></svg>